# xmcd
#
# Track frame offsets: 
#        150
#        14125
#        42107
#        61791
#
# Disc length: 997 seconds
#
# Revision: 1
# Processed by: cddbd v1.5.2PL0 Copyright (c) Steve Scherf et al.
# Submitted via: ExactAudioCopy v0.99pb5
#
DISCID=2c03e304
DTITLE=B.B.S. and DJ Andy B. - Moderato
DYEAR=1997
DGENRE=Dance
TTITLE0=Moderato (Radio-Cut)
TTITLE1=Moderato (Bonito Julio Remix)
TTITLE2=Moderato (Full Length)
TTITLE3=(AHA) Surprise (feat. Pink Bunny)
EXTD=
EXTT0=
EXTT1=
EXTT2=
EXTT3=
PLAYORDER=
